<?xml version="1.0" encoding="iso-8859-1"?>
<!-- Generator: Adobe Illustrator 21.1.0, SVG Export Plug-In . SVG Version: 6.00 Build 0)  -->
<!DOCTYPE svg PUBLIC "-//W3C//DTD SVG 1.1//EN" "http://www.w3.org/Graphics/SVG/1.1/DTD/svg11.dtd">
<svg version="1.1" id="Layer_1" xmlns="http://www.w3.org/2000/svg" xmlns:xlink="http://www.w3.org/1999/xlink" x="0px" y="0px"
	 viewBox="0 0 121.89 121.89" style="enable-background:new 0 0 121.89 121.89;" xml:space="preserve">
<path style="fill:#71CBD3;" d="M113.227,82.41c0.072-1.316,0.159-2.228,0.159-3.153c0.014-17.836-0.043-35.686,0.072-53.521
	c0-2.3-0.752-3.139-3.182-3.689c-15.709-3.558-30.666-2.531-44.423,5.887c-1.157,0.709-2.343,2.329-2.358,3.544
	c-0.145,18.472-0.101,36.93-0.087,55.387c0,0.419,0.087,0.825,0.203,1.895C79.016,78.664,95.666,77.752,113.227,82.41"/>
<path style="fill:#71CBD3;" d="M58.473,89.18v-3.877c0-17.517-0.058-35.02,0.072-52.552c0.014-2.517-0.94-3.833-3.197-5.092
	c-13.728-7.696-28.265-9.012-43.569-5.236c-1.635,0.405-2.416,0.984-2.416,2.691c0.072,18.646,0.043,37.306,0.072,55.952
	c0,0.376,0.145,0.767,0.304,1.519C26.823,77.738,42.922,79.329,58.473,89.18"/>
<path style="fill:#71CBD3;" d="M60.514,101.773c18.559-14.552,39.751-12.44,61.376-8.043V28.709
	c-1.114-0.174-2.17-0.347-3.703-0.593v60.711c-20.468-4.6-39.982-5.41-57.601,7.29C43.575,83.995,24.654,83.822,4.678,88.841V28.463
	c-1.721,0.13-3.096,0.231-4.672,0.347v63.908c10.415-0.723,20.917-2.083,31.39-1.953C42.302,90.895,51.921,95.293,60.514,101.773"/>
</svg>
