<?xml version="1.0" encoding="iso-8859-1"?>
<!-- Generator: Adobe Illustrator 21.1.0, SVG Export Plug-In . SVG Version: 6.00 Build 0)  -->
<!DOCTYPE svg PUBLIC "-//W3C//DTD SVG 1.1//EN" "http://www.w3.org/Graphics/SVG/1.1/DTD/svg11.dtd">
<svg version="1.1" id="Layer_1" xmlns="http://www.w3.org/2000/svg" xmlns:xlink="http://www.w3.org/1999/xlink" x="0px" y="0px"
	 viewBox="0 0 121.89 121.89" style="enable-background:new 0 0 121.89 121.89;" xml:space="preserve">
<path style="fill:#71CBD3;" d="M118.61,15.729c-1.98,5.553-5.491,9.652-10.302,12.993c1.485-0.247,2.985-0.464,4.439-0.773
	c1.547-0.356,3.094-0.758,4.61-1.207c1.454-0.433,2.893-0.975,4.532-1.547c-2.769,3.898-5.816,7.286-9.575,9.977
	c-2.042,1.469-2.769,2.97-2.831,5.476c-0.603,22.151-9.915,40.372-28.384,54.139c-9.575,7.115-20.635,11.06-32.7,12.576
	c-10.255,1.268-20.356,0.665-30.302-2.057c-6.311-1.717-12.251-4.254-17.819-7.533C0.186,97.711,0.077,97.649,0,97.494
	c13.488,1.067,25.631-2.073,36.598-9.9c-11.462-0.928-19.165-6.357-23.403-16.536c3.852,0.495,7.409,0.526,10.998-0.402
	C11.849,67.146,5.244,59.442,4.331,46.99c3.651,1.732,7.177,2.815,11.106,2.939C4.347,41.174,1.903,30.718,7.935,18.22
	C21.671,33.456,38.81,41.747,59.769,43.139c-0.155-1.423-0.371-2.707-0.449-4.006c-0.557-11.029,6.048-20.511,17.185-23.945
	c9.157-2.815,17.541-1.005,24.78,5.043c1.036,0.866,1.841,1.176,3.233,0.835c4.424-1.067,8.647-2.552,12.653-4.64
	C117.559,16.24,117.945,16.054,118.61,15.729"/>
</svg>
